<mxfile host="app.diagrams.net" modified="2021-10-08T14:25:55.161Z" agent="5.0 (Windows NT 10.0; Win64; x64) AppleWebKit/537.36 (KHTML, like Gecko) Chrome/93.0.4577.82 Safari/537.36" etag="rIQD0Uj-ofbd3__Ttgpi" version="15.0.6" type="github" pages="2">
  <diagram id="NPjKo0UEVmGPg_6SEsO7" name="Current situation">
    <mxGraphModel dx="1550" dy="889" grid="1" gridSize="10" guides="1" tooltips="1" connect="1" arrows="1" fold="1" page="1" pageScale="1" pageWidth="850" pageHeight="1100" math="0" shadow="0">
      <root>
        <mxCell id="0" />
        <mxCell id="1" parent="0" />
        <mxCell id="_PrZsOO9OELw25W8AsQe-18" value="" style="shape=ext;double=1;rounded=1;whiteSpace=wrap;html=1;strokeColor=#000000;fillColor=#F7F5FA;" parent="1" vertex="1">
          <mxGeometry x="425" y="615" width="165" height="105" as="geometry" />
        </mxCell>
        <mxCell id="_PrZsOO9OELw25W8AsQe-19" value="Change Request #2" style="edgeStyle=orthogonalEdgeStyle;curved=1;rounded=0;orthogonalLoop=1;jettySize=auto;html=1;entryX=0.5;entryY=0;entryDx=0;entryDy=0;entryPerimeter=0;" parent="1" source="_PrZsOO9OELw25W8AsQe-1" target="_PrZsOO9OELw25W8AsQe-6" edge="1">
          <mxGeometry relative="1" as="geometry">
            <Array as="points">
              <mxPoint x="134" y="270" />
              <mxPoint x="299" y="270" />
              <mxPoint x="299" y="260" />
              <mxPoint x="464" y="260" />
            </Array>
          </mxGeometry>
        </mxCell>
        <mxCell id="_PrZsOO9OELw25W8AsQe-1" value="" style="verticalLabelPosition=bottom;html=1;verticalAlign=top;align=center;strokeColor=none;fillColor=#00BEF2;shape=mxgraph.azure.user;" parent="1" vertex="1">
          <mxGeometry x="110" y="440" width="47.5" height="50" as="geometry" />
        </mxCell>
        <mxCell id="_PrZsOO9OELw25W8AsQe-14" value="Change Request #4" style="edgeStyle=orthogonalEdgeStyle;rounded=0;orthogonalLoop=1;jettySize=auto;html=1;curved=1;" parent="1" source="_PrZsOO9OELw25W8AsQe-2" edge="1">
          <mxGeometry relative="1" as="geometry">
            <mxPoint x="590" y="664" as="targetPoint" />
            <Array as="points">
              <mxPoint x="754" y="664" />
            </Array>
          </mxGeometry>
        </mxCell>
        <mxCell id="_PrZsOO9OELw25W8AsQe-20" value="Change Request #5" style="edgeStyle=orthogonalEdgeStyle;curved=1;rounded=0;orthogonalLoop=1;jettySize=auto;html=1;entryX=0.84;entryY=0.28;entryDx=0;entryDy=0;entryPerimeter=0;" parent="1" source="_PrZsOO9OELw25W8AsQe-2" target="_PrZsOO9OELw25W8AsQe-6" edge="1">
          <mxGeometry relative="1" as="geometry">
            <Array as="points">
              <mxPoint x="754" y="334" />
            </Array>
          </mxGeometry>
        </mxCell>
        <mxCell id="_PrZsOO9OELw25W8AsQe-2" value="" style="verticalLabelPosition=bottom;html=1;verticalAlign=top;align=center;strokeColor=none;fillColor=#00BEF2;shape=mxgraph.azure.user;" parent="1" vertex="1">
          <mxGeometry x="730" y="440" width="47.5" height="50" as="geometry" />
        </mxCell>
        <mxCell id="_PrZsOO9OELw25W8AsQe-15" value="Change Request #3" style="edgeStyle=orthogonalEdgeStyle;curved=1;rounded=0;orthogonalLoop=1;jettySize=auto;html=1;" parent="1" source="_PrZsOO9OELw25W8AsQe-4" edge="1">
          <mxGeometry relative="1" as="geometry">
            <mxPoint x="453" y="610" as="targetPoint" />
            <Array as="points">
              <mxPoint x="284" y="500" />
              <mxPoint x="453" y="500" />
            </Array>
          </mxGeometry>
        </mxCell>
        <mxCell id="_PrZsOO9OELw25W8AsQe-4" value="" style="verticalLabelPosition=bottom;html=1;verticalAlign=top;align=center;strokeColor=none;fillColor=#00BEF2;shape=mxgraph.azure.user;" parent="1" vertex="1">
          <mxGeometry x="260" y="370" width="47.5" height="50" as="geometry" />
        </mxCell>
        <mxCell id="_PrZsOO9OELw25W8AsQe-6" value="Product Team" style="verticalLabelPosition=bottom;html=1;verticalAlign=top;align=center;strokeColor=none;shape=mxgraph.azure.user;fillColor=#0000FF;" parent="1" vertex="1">
          <mxGeometry x="440" y="320" width="47.5" height="50" as="geometry" />
        </mxCell>
        <mxCell id="_PrZsOO9OELw25W8AsQe-16" value="Prioritized Change Request List" style="edgeStyle=orthogonalEdgeStyle;curved=1;rounded=0;orthogonalLoop=1;jettySize=auto;html=1;" parent="1" source="_PrZsOO9OELw25W8AsQe-7" edge="1">
          <mxGeometry relative="1" as="geometry">
            <mxPoint x="535" y="610" as="targetPoint" />
            <Array as="points">
              <mxPoint x="570" y="425" />
              <mxPoint x="570" y="545" />
              <mxPoint x="535" y="545" />
            </Array>
          </mxGeometry>
        </mxCell>
        <mxCell id="_PrZsOO9OELw25W8AsQe-7" value="" style="html=1;aspect=fixed;strokeColor=none;shadow=0;align=center;verticalAlign=top;fillColor=#3B8DF1;shape=mxgraph.gcp2.bucket_scale" parent="1" vertex="1">
          <mxGeometry x="425" y="390" width="86.42" height="70" as="geometry" />
        </mxCell>
        <mxCell id="_PrZsOO9OELw25W8AsQe-8" value="IT Teams" style="verticalLabelPosition=bottom;html=1;verticalAlign=top;align=center;shape=mxgraph.azure.user;strokeColor=none;fillColor=#009900;" parent="1" vertex="1">
          <mxGeometry x="440" y="630" width="47.5" height="50" as="geometry" />
        </mxCell>
        <mxCell id="_PrZsOO9OELw25W8AsQe-9" value="" style="verticalLabelPosition=bottom;html=1;verticalAlign=top;align=center;shape=mxgraph.azure.user;strokeColor=none;fillColor=#009900;" parent="1" vertex="1">
          <mxGeometry x="463.92" y="630" width="47.5" height="50" as="geometry" />
        </mxCell>
        <mxCell id="_PrZsOO9OELw25W8AsQe-10" value="" style="verticalLabelPosition=bottom;html=1;verticalAlign=top;align=center;shape=mxgraph.azure.user;strokeColor=none;fillColor=#009900;" parent="1" vertex="1">
          <mxGeometry x="487.5" y="640" width="47.5" height="50" as="geometry" />
        </mxCell>
        <mxCell id="_PrZsOO9OELw25W8AsQe-11" value="" style="verticalLabelPosition=bottom;html=1;verticalAlign=top;align=center;shape=mxgraph.azure.user;strokeColor=none;fillColor=#009900;" parent="1" vertex="1">
          <mxGeometry x="511.42" y="630" width="47.5" height="50" as="geometry" />
        </mxCell>
        <mxCell id="_PrZsOO9OELw25W8AsQe-12" value="" style="verticalLabelPosition=bottom;html=1;verticalAlign=top;align=center;shape=mxgraph.azure.user;strokeColor=none;fillColor=#009900;" parent="1" vertex="1">
          <mxGeometry x="530" y="650" width="47.5" height="50" as="geometry" />
        </mxCell>
        <mxCell id="_PrZsOO9OELw25W8AsQe-13" value="Change Request #1" style="edgeStyle=segmentEdgeStyle;endArrow=classic;html=1;exitX=0.5;exitY=1;exitDx=0;exitDy=0;exitPerimeter=0;" parent="1" source="_PrZsOO9OELw25W8AsQe-1" edge="1">
          <mxGeometry width="50" height="50" relative="1" as="geometry">
            <mxPoint x="400" y="480" as="sourcePoint" />
            <mxPoint x="430" y="655" as="targetPoint" />
            <Array as="points">
              <mxPoint x="134" y="655" />
            </Array>
          </mxGeometry>
        </mxCell>
        <mxCell id="_PrZsOO9OELw25W8AsQe-21" value="&lt;b&gt;Change Request/Enhancement coming from different direction to IT&lt;/b&gt;" style="text;html=1;strokeColor=none;fillColor=none;align=center;verticalAlign=middle;whiteSpace=wrap;rounded=0;" parent="1" vertex="1">
          <mxGeometry x="268" y="100" width="442" height="110" as="geometry" />
        </mxCell>
        <mxCell id="pCA-BUZuogGv3JGFmiGA-1" value="&lt;h1&gt;&lt;br&gt;&lt;/h1&gt;&lt;p&gt;&lt;/p&gt;&lt;ul&gt;&lt;li&gt;IT team get request from multiple source.&lt;br&gt;&lt;/li&gt;&lt;li&gt;Multiple sources going to Tom for change request and all end up #1 priority&lt;/li&gt;&lt;li&gt;This create problem for IT as all #1 cannot be taken care of at the same time.&lt;/li&gt;&lt;li&gt;No centralize view of all the change requests that are running&lt;/li&gt;&lt;/ul&gt;&lt;p&gt;&lt;/p&gt;" style="text;html=1;strokeColor=none;fillColor=none;spacing=5;spacingTop=-20;whiteSpace=wrap;overflow=hidden;rounded=0;" vertex="1" parent="1">
          <mxGeometry x="40" y="680" width="330" height="245" as="geometry" />
        </mxCell>
      </root>
    </mxGraphModel>
  </diagram>
  <diagram name="Proposed Change" id="3LiytaKtVFtDAyuTH2ZK">
    <mxGraphModel dx="1550" dy="889" grid="1" gridSize="10" guides="1" tooltips="1" connect="1" arrows="1" fold="1" page="1" pageScale="1" pageWidth="850" pageHeight="1100" math="0" shadow="0">
      <root>
        <mxCell id="Lhht_wvyZt1comAvVJcx-0" />
        <mxCell id="Lhht_wvyZt1comAvVJcx-1" parent="Lhht_wvyZt1comAvVJcx-0" />
        <mxCell id="Lhht_wvyZt1comAvVJcx-12" value="" style="html=1;aspect=fixed;strokeColor=none;shadow=0;align=center;verticalAlign=top;fillColor=#3B8DF1;shape=mxgraph.gcp2.bucket_scale" vertex="1" parent="Lhht_wvyZt1comAvVJcx-1">
          <mxGeometry x="440" y="400" width="86.42" height="70" as="geometry" />
        </mxCell>
        <mxCell id="Lhht_wvyZt1comAvVJcx-2" value="" style="shape=ext;double=1;rounded=1;whiteSpace=wrap;html=1;strokeColor=#000000;fillColor=#F7F5FA;" vertex="1" parent="Lhht_wvyZt1comAvVJcx-1">
          <mxGeometry x="425" y="615" width="165" height="105" as="geometry" />
        </mxCell>
        <mxCell id="Lhht_wvyZt1comAvVJcx-3" value="Change Request #2" style="edgeStyle=orthogonalEdgeStyle;curved=1;rounded=0;orthogonalLoop=1;jettySize=auto;html=1;entryX=0.5;entryY=0;entryDx=0;entryDy=0;entryPerimeter=0;" edge="1" parent="Lhht_wvyZt1comAvVJcx-1" source="Lhht_wvyZt1comAvVJcx-4" target="Lhht_wvyZt1comAvVJcx-10">
          <mxGeometry relative="1" as="geometry">
            <Array as="points">
              <mxPoint x="134" y="240" />
              <mxPoint x="464" y="240" />
            </Array>
          </mxGeometry>
        </mxCell>
        <mxCell id="KRBBXrkw-DbNL_L3zrOf-0" value="Change Request #1" style="edgeStyle=orthogonalEdgeStyle;curved=1;rounded=0;orthogonalLoop=1;jettySize=auto;html=1;exitX=0.84;exitY=0.28;exitDx=0;exitDy=0;exitPerimeter=0;entryX=0.28;entryY=0.28;entryDx=0;entryDy=0;entryPerimeter=0;" edge="1" parent="Lhht_wvyZt1comAvVJcx-1" source="Lhht_wvyZt1comAvVJcx-4" target="Lhht_wvyZt1comAvVJcx-10">
          <mxGeometry relative="1" as="geometry">
            <Array as="points">
              <mxPoint x="190" y="454" />
              <mxPoint x="190" y="290" />
              <mxPoint x="453" y="290" />
            </Array>
          </mxGeometry>
        </mxCell>
        <mxCell id="Lhht_wvyZt1comAvVJcx-4" value="" style="verticalLabelPosition=bottom;html=1;verticalAlign=top;align=center;strokeColor=none;fillColor=#00BEF2;shape=mxgraph.azure.user;" vertex="1" parent="Lhht_wvyZt1comAvVJcx-1">
          <mxGeometry x="110" y="440" width="47.5" height="50" as="geometry" />
        </mxCell>
        <mxCell id="Lhht_wvyZt1comAvVJcx-5" value="Change Request #4" style="edgeStyle=orthogonalEdgeStyle;rounded=0;orthogonalLoop=1;jettySize=auto;html=1;curved=1;entryX=0.87;entryY=0.65;entryDx=0;entryDy=0;entryPerimeter=0;" edge="1" parent="Lhht_wvyZt1comAvVJcx-1" source="Lhht_wvyZt1comAvVJcx-7" target="Lhht_wvyZt1comAvVJcx-10">
          <mxGeometry relative="1" as="geometry">
            <mxPoint x="590" y="664" as="targetPoint" />
            <Array as="points">
              <mxPoint x="754" y="380" />
              <mxPoint x="520" y="380" />
              <mxPoint x="520" y="353" />
            </Array>
          </mxGeometry>
        </mxCell>
        <mxCell id="Lhht_wvyZt1comAvVJcx-6" value="Change Request #5" style="edgeStyle=orthogonalEdgeStyle;curved=1;rounded=0;orthogonalLoop=1;jettySize=auto;html=1;entryX=0.84;entryY=0.28;entryDx=0;entryDy=0;entryPerimeter=0;" edge="1" parent="Lhht_wvyZt1comAvVJcx-1" source="Lhht_wvyZt1comAvVJcx-7" target="Lhht_wvyZt1comAvVJcx-10">
          <mxGeometry relative="1" as="geometry">
            <Array as="points">
              <mxPoint x="754" y="334" />
            </Array>
          </mxGeometry>
        </mxCell>
        <mxCell id="Lhht_wvyZt1comAvVJcx-7" value="" style="verticalLabelPosition=bottom;html=1;verticalAlign=top;align=center;strokeColor=none;fillColor=#00BEF2;shape=mxgraph.azure.user;" vertex="1" parent="Lhht_wvyZt1comAvVJcx-1">
          <mxGeometry x="730" y="440" width="47.5" height="50" as="geometry" />
        </mxCell>
        <mxCell id="Lhht_wvyZt1comAvVJcx-8" value="Change Request #3" style="edgeStyle=orthogonalEdgeStyle;curved=1;rounded=0;orthogonalLoop=1;jettySize=auto;html=1;entryX=0.14;entryY=0.65;entryDx=0;entryDy=0;entryPerimeter=0;" edge="1" parent="Lhht_wvyZt1comAvVJcx-1" source="Lhht_wvyZt1comAvVJcx-9" target="Lhht_wvyZt1comAvVJcx-10">
          <mxGeometry relative="1" as="geometry">
            <mxPoint x="453" y="610" as="targetPoint" />
            <Array as="points">
              <mxPoint x="284" y="320" />
              <mxPoint x="420" y="320" />
              <mxPoint x="420" y="353" />
            </Array>
          </mxGeometry>
        </mxCell>
        <mxCell id="Lhht_wvyZt1comAvVJcx-9" value="" style="verticalLabelPosition=bottom;html=1;verticalAlign=top;align=center;strokeColor=none;fillColor=#00BEF2;shape=mxgraph.azure.user;" vertex="1" parent="Lhht_wvyZt1comAvVJcx-1">
          <mxGeometry x="260" y="370" width="47.5" height="50" as="geometry" />
        </mxCell>
        <mxCell id="Lhht_wvyZt1comAvVJcx-10" value="&lt;br&gt;Dedicated Planning team" style="verticalLabelPosition=bottom;html=1;verticalAlign=top;align=center;strokeColor=none;shape=mxgraph.azure.user;fillColor=#0000FF;" vertex="1" parent="Lhht_wvyZt1comAvVJcx-1">
          <mxGeometry x="440" y="320" width="47.5" height="50" as="geometry" />
        </mxCell>
        <mxCell id="Lhht_wvyZt1comAvVJcx-11" value="Prioritized Change Request List" style="edgeStyle=orthogonalEdgeStyle;curved=1;rounded=0;orthogonalLoop=1;jettySize=auto;html=1;" edge="1" parent="Lhht_wvyZt1comAvVJcx-1" source="Lhht_wvyZt1comAvVJcx-12">
          <mxGeometry relative="1" as="geometry">
            <mxPoint x="535" y="610" as="targetPoint" />
            <Array as="points">
              <mxPoint x="570" y="425" />
              <mxPoint x="570" y="545" />
              <mxPoint x="535" y="545" />
            </Array>
          </mxGeometry>
        </mxCell>
        <mxCell id="Lhht_wvyZt1comAvVJcx-13" value="IT Teams" style="verticalLabelPosition=bottom;html=1;verticalAlign=top;align=center;shape=mxgraph.azure.user;strokeColor=none;fillColor=#009900;" vertex="1" parent="Lhht_wvyZt1comAvVJcx-1">
          <mxGeometry x="440" y="630" width="47.5" height="50" as="geometry" />
        </mxCell>
        <mxCell id="Lhht_wvyZt1comAvVJcx-14" value="" style="verticalLabelPosition=bottom;html=1;verticalAlign=top;align=center;shape=mxgraph.azure.user;strokeColor=none;fillColor=#009900;" vertex="1" parent="Lhht_wvyZt1comAvVJcx-1">
          <mxGeometry x="463.92" y="630" width="47.5" height="50" as="geometry" />
        </mxCell>
        <mxCell id="Lhht_wvyZt1comAvVJcx-15" value="" style="verticalLabelPosition=bottom;html=1;verticalAlign=top;align=center;shape=mxgraph.azure.user;strokeColor=none;fillColor=#009900;" vertex="1" parent="Lhht_wvyZt1comAvVJcx-1">
          <mxGeometry x="487.5" y="640" width="47.5" height="50" as="geometry" />
        </mxCell>
        <mxCell id="Lhht_wvyZt1comAvVJcx-16" value="" style="verticalLabelPosition=bottom;html=1;verticalAlign=top;align=center;shape=mxgraph.azure.user;strokeColor=none;fillColor=#009900;" vertex="1" parent="Lhht_wvyZt1comAvVJcx-1">
          <mxGeometry x="511.42" y="630" width="47.5" height="50" as="geometry" />
        </mxCell>
        <mxCell id="Lhht_wvyZt1comAvVJcx-17" value="" style="verticalLabelPosition=bottom;html=1;verticalAlign=top;align=center;shape=mxgraph.azure.user;strokeColor=none;fillColor=#009900;" vertex="1" parent="Lhht_wvyZt1comAvVJcx-1">
          <mxGeometry x="530" y="650" width="47.5" height="50" as="geometry" />
        </mxCell>
        <mxCell id="Lhht_wvyZt1comAvVJcx-19" value="&lt;b&gt;Dedicated Planning team to get all change request/enhancement list&lt;/b&gt;" style="text;html=1;strokeColor=none;fillColor=none;align=center;verticalAlign=middle;whiteSpace=wrap;rounded=0;" vertex="1" parent="Lhht_wvyZt1comAvVJcx-1">
          <mxGeometry x="180" y="70" width="442" height="110" as="geometry" />
        </mxCell>
        <mxCell id="FbGY4etm45lQdQtz7-i8-0" value="&lt;h1&gt;&lt;br&gt;&lt;/h1&gt;&lt;p&gt;&lt;/p&gt;&lt;ul&gt;&lt;li&gt;Single source to collect list of change requests.&lt;br&gt;&lt;/li&gt;&lt;li&gt;Single source to take it to Tom to prioritize&lt;/li&gt;&lt;li&gt;IT receive list of prioritized list from a single source&lt;/li&gt;&lt;li&gt;Outcome: Better control of list of projects being worked on and in the pipeline&lt;/li&gt;&lt;/ul&gt;&lt;p&gt;&lt;/p&gt;" style="text;html=1;strokeColor=none;fillColor=none;spacing=5;spacingTop=-20;whiteSpace=wrap;overflow=hidden;rounded=0;" vertex="1" parent="Lhht_wvyZt1comAvVJcx-1">
          <mxGeometry x="60" y="615" width="330" height="245" as="geometry" />
        </mxCell>
      </root>
    </mxGraphModel>
  </diagram>
</mxfile>
